<svg width="45" height="58" viewBox="0 0 45 58" fill="none" xmlns="http://www.w3.org/2000/svg">
<path d="M36.5575 29.6643H8.06482V12.8018C8.07087 11.9822 8.40148 11.1979 8.98522 10.6184C9.56896 10.0388 10.3589 9.71059 11.1845 9.70459H33.4378C34.2633 9.71059 35.0533 10.0388 35.6371 10.6184C36.2208 11.1979 36.5514 11.9822 36.5575 12.8018V29.6643ZM9.26646 28.4943H35.3558V12.8018C35.3498 12.2986 35.1458 11.8177 34.7874 11.4619C34.429 11.1061 33.9446 10.9035 33.4378 10.8976H11.1845C10.6776 10.9035 10.1933 11.1061 9.83485 11.4619C9.47645 11.8177 9.27245 12.2986 9.26646 12.8018V28.4943Z" fill="#191817"/>
<path d="M12.2474 17.7572C11.9285 17.7456 11.6262 17.613 11.4027 17.3868C11.1792 17.1607 11.0515 16.8581 11.0458 16.5413V14.0865C11.0218 13.9144 11.0353 13.7391 11.0852 13.5726C11.1352 13.4061 11.2206 13.2522 11.3355 13.1211C11.4505 12.9901 11.5924 12.8851 11.7517 12.8131C11.911 12.7412 12.084 12.7039 12.259 12.7039C12.434 12.7039 12.607 12.7412 12.7663 12.8131C12.9256 12.8851 13.0675 12.9901 13.1824 13.1211C13.2974 13.2522 13.3828 13.4061 13.4327 13.5726C13.4827 13.7391 13.4962 13.9144 13.4722 14.0865V16.5413C13.4662 16.862 13.3353 17.1678 13.1069 17.3946C12.8785 17.6214 12.5704 17.7514 12.2474 17.7572ZM12.2474 13.5359C12.1022 13.5415 11.9644 13.6014 11.8616 13.7034C11.7588 13.8055 11.6985 13.9423 11.6928 14.0865V16.5413C11.7193 16.671 11.7902 16.7875 11.8934 16.8713C11.9966 16.955 12.1257 17.0007 12.259 17.0007C12.3922 17.0007 12.5214 16.955 12.6246 16.8713C12.7278 16.7875 12.7986 16.671 12.8251 16.5413V14.0865C12.8192 13.9384 12.7557 13.7983 12.648 13.6957C12.5403 13.593 12.3967 13.5358 12.2474 13.5359Z" fill="#191817"/>
<path d="M12.2474 25.833C11.9266 25.827 11.621 25.6962 11.3963 25.4689C11.1716 25.2415 11.0457 24.9356 11.0458 24.6171V20.3957C11.0218 20.2236 11.0353 20.0484 11.0852 19.8818C11.1352 19.7153 11.2206 19.5614 11.3355 19.4303C11.4505 19.2993 11.5924 19.1943 11.7517 19.1223C11.911 19.0504 12.084 19.0131 12.259 19.0131C12.434 19.0131 12.607 19.0504 12.7663 19.1223C12.9256 19.1943 13.0675 19.2993 13.1824 19.4303C13.2974 19.5614 13.3828 19.7153 13.4327 19.8818C13.4827 20.0484 13.4962 20.2236 13.4722 20.3957V24.6171C13.4722 24.9396 13.3431 25.2488 13.1135 25.4769C12.8838 25.7049 12.5723 25.833 12.2474 25.833ZM12.2474 19.8451C12.1022 19.8507 11.9644 19.9106 11.8616 20.0126C11.7588 20.1147 11.6985 20.2515 11.6928 20.3957V24.6171C11.6758 24.7004 11.6776 24.7864 11.6982 24.8689C11.7187 24.9514 11.7575 25.0284 11.8117 25.0942C11.8659 25.16 11.9341 25.213 12.0115 25.2494C12.0888 25.2859 12.1734 25.3048 12.259 25.3048C12.3446 25.3048 12.4291 25.2859 12.5065 25.2494C12.5839 25.213 12.6521 25.16 12.7063 25.0942C12.7605 25.0284 12.7992 24.9514 12.8198 24.8689C12.8404 24.7864 12.8422 24.7004 12.8251 24.6171V20.3957C12.803 20.26 12.7325 20.1367 12.6264 20.0482C12.5204 19.9598 12.3859 19.9121 12.2474 19.9139V19.8451Z" fill="#191817"/>
<path d="M12.2474 38.8183C11.9266 38.8123 11.621 38.6815 11.3963 38.4541C11.1716 38.2267 11.0457 37.9209 11.0458 37.6023V35.1705C11.0218 34.9983 11.0353 34.8231 11.0852 34.6566C11.1352 34.4901 11.2206 34.3361 11.3355 34.2051C11.4505 34.0741 11.5924 33.9691 11.7517 33.8971C11.911 33.8251 12.084 33.7879 12.259 33.7879C12.434 33.7879 12.607 33.8251 12.7663 33.8971C12.9256 33.9691 13.0675 34.0741 13.1824 34.2051C13.2974 34.3361 13.3828 34.4901 13.4327 34.6566C13.4827 34.8231 13.4962 34.9983 13.4722 35.1705V37.6023C13.4722 37.9248 13.3431 38.2341 13.1135 38.4621C12.8838 38.6902 12.5723 38.8183 12.2474 38.8183ZM12.2474 34.6199C12.1022 34.6255 11.9644 34.6853 11.8616 34.7874C11.7588 34.8895 11.6985 35.0262 11.6928 35.1705V37.6023C11.6758 37.6856 11.6776 37.7717 11.6982 37.8542C11.7187 37.9367 11.7575 38.0136 11.8117 38.0794C11.8659 38.1453 11.9341 38.1983 12.0115 38.2347C12.0888 38.2711 12.1734 38.29 12.259 38.29C12.3446 38.29 12.4291 38.2711 12.5065 38.2347C12.5839 38.1983 12.6521 38.1453 12.7063 38.0794C12.7605 38.0136 12.7992 37.9367 12.8198 37.8542C12.8404 37.7717 12.8422 37.6856 12.8251 37.6023V35.1705C12.8192 35.0224 12.7557 34.8823 12.648 34.7797C12.5403 34.677 12.3967 34.6197 12.2474 34.6199Z" fill="#191817"/>
<path d="M12.2474 46.9169C11.9266 46.9109 11.621 46.7801 11.3963 46.5528C11.1716 46.3254 11.0457 46.0195 11.0458 45.701V41.4796C11.0218 41.3075 11.0353 41.1323 11.0852 40.9657C11.1352 40.7992 11.2206 40.6453 11.3355 40.5143C11.4505 40.3833 11.5924 40.2782 11.7517 40.2063C11.911 40.1343 12.084 40.097 12.259 40.097C12.434 40.097 12.607 40.1343 12.7663 40.2063C12.9256 40.2782 13.0675 40.3833 13.1824 40.5143C13.2974 40.6453 13.3828 40.7992 13.4327 40.9657C13.4827 41.1323 13.4962 41.3075 13.4722 41.4796V45.701C13.4722 46.0235 13.3431 46.3327 13.1135 46.5608C12.8838 46.7888 12.5723 46.9169 12.2474 46.9169ZM12.2474 40.929C12.1022 40.9347 11.9644 40.9945 11.8616 41.0965C11.7588 41.1986 11.6985 41.3354 11.6928 41.4796V45.701C11.6758 45.7843 11.6776 45.8703 11.6982 45.9528C11.7187 46.0353 11.7575 46.1123 11.8117 46.1781C11.8659 46.2439 11.9341 46.2969 12.0115 46.3334C12.0888 46.3698 12.1734 46.3887 12.259 46.3887C12.3446 46.3887 12.4291 46.3698 12.5065 46.3334C12.5839 46.2969 12.6521 46.2439 12.7063 46.1781C12.7605 46.1123 12.7992 46.0353 12.8198 45.9528C12.8404 45.8703 12.8422 45.7843 12.8251 45.701V41.4796C12.8192 41.3315 12.7557 41.1914 12.648 41.0888C12.5403 40.9861 12.3967 40.9289 12.2474 40.929Z" fill="#191817"/>
<path d="M33.5071 54.9008H11.1845C10.3589 54.8948 9.56896 54.5665 8.98522 53.987C8.40148 53.4074 8.07087 52.6231 8.06482 51.8036V30.6508H36.6037V51.8036C36.6037 52.621 36.2782 53.4054 35.6981 53.9855C35.1181 54.5657 34.3305 54.8947 33.5071 54.9008ZM9.26646 31.9585V51.9183C9.27245 52.4214 9.47645 52.9023 9.83485 53.2582C10.1933 53.614 10.6776 53.8165 11.1845 53.8225H33.5071C34.014 53.8165 34.4983 53.614 34.8567 53.2582C35.2151 52.9023 35.4191 52.4214 35.4251 51.9183V31.8438L9.26646 31.9585Z" fill="#191817"/>
<path d="M12.8483 57.4703H12.3168C12.0807 57.4715 11.8528 57.385 11.6775 57.228C11.5023 57.071 11.3924 56.8547 11.3694 56.6215V54.832C11.3663 54.7065 11.3885 54.5818 11.4347 54.465C11.481 54.3482 11.5503 54.2418 11.6386 54.152C11.7268 54.0622 11.8323 53.9908 11.9488 53.9421C12.0653 53.8934 12.1904 53.8684 12.3168 53.8684H12.8483C13.1057 53.8684 13.3526 53.9699 13.5346 54.1506C13.7166 54.3313 13.8188 54.5764 13.8188 54.832V56.6215C13.7955 56.8587 13.6823 57.0783 13.5022 57.2359C13.322 57.3935 13.0883 57.4773 12.8483 57.4703Z" fill="#191817"/>
<path d="M31.4043 57.4703H30.8728C30.7464 57.4734 30.6207 57.4513 30.5031 57.4054C30.3855 57.3595 30.2783 57.2907 30.1878 57.203C30.0974 57.1154 30.0255 57.0107 29.9765 56.895C29.9274 56.7794 29.9022 56.6552 29.9022 56.5297V54.7402C29.9022 54.4846 30.0045 54.2395 30.1865 54.0588C30.3685 53.8781 30.6154 53.7766 30.8728 53.7766H31.4043C31.6617 53.7766 31.9086 53.8781 32.0906 54.0588C32.2726 54.2395 32.3748 54.4846 32.3748 54.7402V56.6214C32.3515 56.8587 32.2383 57.0783 32.0582 57.2359C31.878 57.3935 31.6443 57.4772 31.4043 57.4703Z" fill="#191817"/>
<path d="M32.8601 16.266H32.19L32.5828 15.876C32.6169 15.8382 32.6358 15.7892 32.6358 15.7384C32.6358 15.6876 32.6169 15.6386 32.5828 15.6007C32.541 15.5652 32.4877 15.5456 32.4326 15.5456C32.3775 15.5456 32.3243 15.5652 32.2824 15.6007L31.6123 16.266H29.9485L31.2425 14.9583H32.2131C32.2604 14.9534 32.3046 14.9324 32.3382 14.899C32.3718 14.8656 32.3929 14.8218 32.3979 14.7748C32.3983 14.7238 32.3796 14.6745 32.3454 14.6363C32.3113 14.5982 32.2641 14.574 32.2131 14.5683H31.6585L32.2131 13.9948C32.2234 13.9733 32.2287 13.9497 32.2287 13.9259C32.2287 13.9021 32.2234 13.8786 32.2131 13.8571C32.2289 13.8126 32.2289 13.764 32.2131 13.7195C32.175 13.6856 32.1256 13.6669 32.0744 13.6669C32.0233 13.6669 31.9739 13.6856 31.9358 13.7195L31.3812 14.2701V13.7424C31.3812 13.6876 31.3593 13.6351 31.3203 13.5964C31.2813 13.5577 31.2284 13.5359 31.1732 13.5359C31.118 13.5359 31.0651 13.5577 31.0261 13.5964C30.9871 13.6351 30.9652 13.6876 30.9652 13.7424V14.683L29.6712 15.9907V14.293L30.3413 13.6277C30.3542 13.5827 30.3542 13.535 30.3413 13.49C30.3513 13.4447 30.3513 13.3977 30.3413 13.3524C30.3032 13.3185 30.2538 13.2998 30.2027 13.2998C30.1515 13.2998 30.1021 13.3185 30.064 13.3524L29.6712 13.7424V13.0312C29.6712 12.9764 29.6492 12.9239 29.6102 12.8852C29.5712 12.8465 29.5183 12.8247 29.4632 12.8247C29.408 12.8247 29.3551 12.8465 29.3161 12.8852C29.2771 12.9239 29.2552 12.9764 29.2552 13.0312V13.7195L28.8855 13.3294C28.8419 13.2977 28.7893 13.2807 28.7353 13.2807C28.6813 13.2807 28.6286 13.2977 28.5851 13.3294C28.575 13.3748 28.575 13.4217 28.5851 13.4671C28.5722 13.5121 28.5722 13.5597 28.5851 13.6047L29.2552 14.2701V15.9449L28.0074 14.6601V13.7424C28.0077 13.6914 27.989 13.6421 27.9548 13.6039C27.9207 13.5658 27.8736 13.5416 27.8225 13.5359C27.7673 13.5359 27.7144 13.5577 27.6754 13.5964C27.6364 13.6351 27.6145 13.6876 27.6145 13.7424V14.2471L26.9906 13.6277C26.9762 13.6039 26.9559 13.5843 26.9316 13.5706C26.9073 13.557 26.8799 13.5498 26.8519 13.5498C26.824 13.5498 26.7966 13.557 26.7723 13.5706C26.748 13.5843 26.7277 13.6039 26.7133 13.6277C26.6792 13.6655 26.6603 13.7145 26.6603 13.7653C26.6603 13.8161 26.6792 13.8651 26.7133 13.903L27.3603 14.5683H26.8519C26.8258 14.565 26.7992 14.5674 26.7741 14.5751C26.7489 14.5829 26.7257 14.5959 26.706 14.6132C26.6863 14.6306 26.6706 14.652 26.6599 14.6759C26.6492 14.6998 26.6438 14.7257 26.644 14.7519C26.644 14.8066 26.6659 14.8591 26.7049 14.8979C26.7439 14.9366 26.7968 14.9583 26.8519 14.9583H27.7994L29.0703 16.2431H27.2679L26.5977 15.5778C26.561 15.5413 26.5111 15.5208 26.4591 15.5208C26.4071 15.5208 26.3572 15.5413 26.3204 15.5778C26.2837 15.6143 26.263 15.6638 26.263 15.7154C26.263 15.7671 26.2837 15.8166 26.3204 15.8531L26.7133 16.2431H25.9276C25.9013 16.2429 25.8752 16.2483 25.8511 16.2589C25.827 16.2695 25.8055 16.2851 25.788 16.3047C25.7705 16.3243 25.7574 16.3473 25.7496 16.3723C25.7418 16.3973 25.7394 16.4236 25.7427 16.4496C25.7388 16.4746 25.7408 16.5001 25.7487 16.5242C25.7566 16.5483 25.7701 16.5701 25.7882 16.588C25.8062 16.6059 25.8282 16.6193 25.8524 16.6272C25.8767 16.635 25.9024 16.637 25.9276 16.6331H26.6902L26.2973 17.0231C26.2632 17.061 26.2444 17.11 26.2444 17.1608C26.2444 17.2116 26.2632 17.2606 26.2973 17.2984C26.2973 17.2984 26.2973 17.2984 26.436 17.2984C26.436 17.2984 26.5515 17.2984 26.5746 17.2984L27.2448 16.6331H29.0241L27.7301 17.9408H26.7826C26.7275 17.9408 26.6746 17.9626 26.6356 18.0013C26.5965 18.04 26.5746 18.0925 26.5746 18.1473C26.5803 18.198 26.6048 18.2448 26.6432 18.2787C26.6816 18.3126 26.7312 18.3312 26.7826 18.3308H27.3372L26.7364 18.9273C26.7023 18.9652 26.6834 19.0142 26.6834 19.065C26.6834 19.1158 26.7023 19.1648 26.7364 19.2026C26.7364 19.2026 26.7364 19.2026 26.875 19.2026C26.875 19.2026 26.875 19.2026 27.0137 19.2026L27.5914 18.6291V19.1568C27.5881 19.1827 27.5904 19.2091 27.5983 19.2341C27.6061 19.2591 27.6191 19.2821 27.6367 19.3016C27.6542 19.3212 27.6757 19.3368 27.6998 19.3474C27.7238 19.3581 27.7499 19.3634 27.7763 19.3632C27.8314 19.3632 27.8843 19.3415 27.9233 19.3028C27.9623 19.264 27.9842 19.2115 27.9842 19.1568V18.2391L29.3014 16.9314V18.652L28.6082 19.3174C28.5741 19.3552 28.5552 19.4042 28.5552 19.455C28.5552 19.5058 28.5741 19.5548 28.6082 19.5927C28.6082 19.5927 28.6082 19.5927 28.7468 19.5927C28.7468 19.5927 28.7468 19.5927 28.8855 19.5927L29.2783 19.2256V19.9139C29.275 19.9398 29.2774 19.9662 29.2852 19.9912C29.293 20.0161 29.3061 20.0392 29.3236 20.0587C29.3411 20.0783 29.3626 20.0939 29.3867 20.1045C29.4107 20.1152 29.4368 20.1205 29.4632 20.1203C29.5183 20.1203 29.5712 20.0986 29.6102 20.0599C29.6492 20.0211 29.6712 19.9686 29.6712 19.9139V19.2944L30.0409 19.6615C30.0409 19.6615 30.0409 19.6615 30.1795 19.6615C30.1795 19.6615 30.1795 19.6615 30.3182 19.6615C30.3523 19.6236 30.3712 19.5746 30.3712 19.5238C30.3712 19.473 30.3523 19.424 30.3182 19.3862L29.6481 18.7209V16.9314L30.8959 18.2391V19.1797C30.8959 19.2345 30.9178 19.287 30.9568 19.3257C30.9958 19.3644 31.0487 19.3862 31.1039 19.3862C31.1549 19.3805 31.2021 19.3563 31.2362 19.3182C31.2704 19.28 31.2891 19.2307 31.2887 19.1797V18.6291L31.9358 19.2715C31.9358 19.2715 31.9358 19.2715 32.0513 19.2715C32.0513 19.2715 32.0513 19.2715 32.19 19.2715C32.2241 19.2336 32.2429 19.1846 32.2429 19.1338C32.2429 19.083 32.2241 19.034 32.19 18.9962L31.5429 18.3538H32.0975C32.1527 18.3538 32.2056 18.332 32.2446 18.2933C32.2836 18.2546 32.3055 18.2021 32.3055 18.1473C32.2998 18.0966 32.2754 18.0498 32.237 18.0159C32.1986 17.982 32.1489 17.9635 32.0975 17.9638H31.1732L29.9022 16.6561H31.5661L32.2362 17.3214C32.2362 17.3214 32.2362 17.3214 32.3748 17.3214C32.3748 17.3214 32.3748 17.3214 32.5135 17.3214C32.5476 17.2835 32.5665 17.2345 32.5665 17.1837C32.5665 17.1329 32.5476 17.0839 32.5135 17.0461L32.1207 16.6561H32.8601C32.8863 16.6593 32.9128 16.657 32.938 16.6493C32.9631 16.6415 32.9864 16.6285 33.0061 16.6111C33.0257 16.5938 33.0415 16.5724 33.0522 16.5485C33.0629 16.5246 33.0683 16.4987 33.0681 16.4725C33.0681 16.4178 33.0462 16.3652 33.0072 16.3265C32.9682 16.2878 32.9153 16.266 32.8601 16.266Z" fill="#191817"/>
<path d="M22.3458 44.3703C17.9252 44.3703 13.604 43.0686 9.92874 40.6298C6.25349 38.1911 3.38939 34.7249 1.69877 30.6697C0.00814974 26.6146 -0.433021 22.1527 0.431072 17.8486C1.29516 13.5445 3.42569 9.59151 6.55312 6.48977C9.68055 3.38804 13.6644 1.27692 18.0005 0.423498C22.3367 -0.429928 26.8305 0.012685 30.9132 1.69534C34.996 3.378 38.4843 6.2251 40.9369 9.87645C43.3895 13.5278 44.6962 17.8193 44.6916 22.2081C44.6794 28.0861 42.3204 33.7196 38.1318 37.8738C33.9431 42.0281 28.2664 44.3642 22.3458 44.3703ZM22.3458 1.74362C18.2746 1.74362 14.2947 2.94192 10.9093 5.18705C7.52383 7.43219 4.8848 10.6234 3.32575 14.3572C1.76669 18.0911 1.3576 22.2 2.15019 26.1647C2.94277 30.1293 4.90144 33.7717 7.77864 36.6314C10.6558 39.4911 14.3224 41.4398 18.3148 42.2311C22.3073 43.0224 26.4464 42.6209 30.2091 41.0773C33.9718 39.5336 37.189 36.9171 39.4542 33.5585C41.7194 30.2 42.9308 26.2501 42.9354 22.2081C42.9354 16.7846 40.7669 11.5828 36.9062 7.74563C33.0456 3.90846 27.8086 1.7497 22.3458 1.74362Z" fill="#5D1831"/>
<path d="M34.6535 4.58981L4.48969 34.5367L5.73153 35.7697L35.8954 5.82273L34.6535 4.58981Z" fill="#5D1831"/>
</svg>
