<svg width="45" height="47" viewBox="0 0 45 47" fill="none" xmlns="http://www.w3.org/2000/svg">
<path d="M39.9215 21.2216C39.8196 17.8823 38.6471 14.6646 36.5775 12.0447C36.5323 11.9811 36.4746 11.9274 36.408 11.887C36.3413 11.8465 36.2671 11.8201 36.19 11.8094C36.1128 11.7986 36.0342 11.8038 35.9591 11.8245C35.8839 11.8453 35.8138 11.8812 35.753 11.93C35.63 12.0254 35.5491 12.1652 35.5277 12.3196C35.5063 12.4739 35.5461 12.6305 35.6385 12.7559C37.5305 15.1653 38.6128 18.1126 38.7305 21.1757H37.5624C37.5218 19.4042 37.1333 17.658 36.4189 16.0369C35.7046 14.4157 34.6785 12.9514 33.3992 11.7275C32.12 10.5036 30.6125 9.54409 28.963 8.90373C27.3136 8.26337 25.5543 7.95472 23.7857 7.99539C20.2139 8.07753 16.821 9.57758 14.3533 12.1655C13.1315 13.447 12.1736 14.9569 11.5343 16.6092C10.895 18.2614 10.5868 20.0236 10.6274 21.7951V30.605H9.45935V21.8181C9.46241 19.0634 10.2402 16.3654 11.7036 14.0331C13.1671 11.7009 15.2569 9.82886 17.7335 8.63155C20.2102 7.43424 22.9736 6.96011 25.7069 7.26351C28.4402 7.5669 31.0329 8.63555 33.1878 10.347C34.4448 11.2975 35.5162 12.4719 36.3485 13.8112C37.3105 14.3619 37.2647 13.9718 37.6082 13.5589C36.606 11.9948 35.3612 10.6007 33.9207 9.42928C31.1315 7.19889 27.6639 5.99251 24.0949 6.01089C19.8993 6.01696 15.8773 7.68914 12.9105 10.6609C9.94379 13.6326 8.27441 17.6613 8.26835 21.864V30.8114C7.76711 30.9836 7.33209 31.3083 7.02411 31.7402C6.71612 32.1721 6.55056 32.6896 6.55056 33.2204V42.8332C5.83957 42.9262 5.18535 43.2712 4.70638 43.8057C4.22741 44.3402 3.95537 45.0288 3.93951 45.7468C3.93951 45.8252 3.95492 45.9027 3.98484 45.9751C4.01477 46.0475 4.05864 46.1132 4.11393 46.1686C4.16923 46.224 4.23488 46.268 4.30712 46.2979C4.37937 46.3279 4.45681 46.3433 4.53502 46.3433H15.7121C15.87 46.3433 16.0215 46.2805 16.1332 46.1686C16.2449 46.0568 16.3076 45.905 16.3076 45.7468C16.3027 45.0208 16.0355 44.3212 15.5556 43.7771C15.0756 43.2331 14.4153 42.8815 13.6966 42.7873V40.4931H19.9722C20.0504 40.4931 20.1279 40.4776 20.2001 40.4477C20.2724 40.4177 20.338 40.3737 20.3933 40.3184C20.4486 40.263 20.4925 40.1972 20.5224 40.1248C20.5523 40.0525 20.5677 39.9749 20.5677 39.8966V30.3526C20.5677 30.1944 20.505 30.0427 20.3933 29.9308C20.2816 29.8189 20.1302 29.7561 19.9722 29.7561C19.8143 29.7561 19.6628 29.8189 19.5512 29.9308C19.4395 30.0427 19.3767 30.1944 19.3767 30.3526V34.4822H13.6966V33.1745C13.6997 32.6146 13.5169 32.0695 13.1769 31.6251C12.8369 31.1807 12.359 30.8622 11.8185 30.7197V21.8181C11.8648 18.6297 13.1434 15.5835 15.3856 13.3199C17.6278 11.0563 20.6589 9.75174 23.8415 9.68043C27.0241 9.60913 30.1104 10.7767 32.4514 12.9375C34.7924 15.0984 36.2057 18.0843 36.3943 21.2675C36.2994 21.3196 36.2199 21.3958 36.1636 21.4884C36.1074 21.581 36.0763 21.6868 36.0737 21.7951V24.3876C36.0737 24.5458 36.1364 24.6975 36.2481 24.8094C36.3598 24.9213 36.5112 24.9841 36.6692 24.9841H39.7383C39.8962 24.9841 40.0477 24.9213 40.1594 24.8094C40.271 24.6975 40.3338 24.5458 40.3338 24.3876V21.7951C40.3286 21.6696 40.2867 21.5484 40.2135 21.4465C40.1402 21.3445 40.0387 21.2663 39.9215 21.2216ZM15.025 45.1503H5.22213C5.34495 44.7973 5.57375 44.491 5.87718 44.2733C6.18061 44.0556 6.54381 43.9372 6.91702 43.9344H13.3301C13.7033 43.9372 14.0665 44.0556 14.3699 44.2733C14.6734 44.491 14.9022 44.7973 15.025 45.1503ZM16.7199 35.6752H19.3767V39.4377H16.7199V35.6752ZM12.5285 33.1745V35.1934C12.5285 35.2717 12.5439 35.3493 12.5738 35.4217C12.6037 35.494 12.6476 35.5598 12.7029 35.6152C12.7582 35.6706 12.8238 35.7145 12.8961 35.7445C12.9683 35.7745 13.0458 35.7899 13.124 35.7899H15.4144V39.5524H13.124C13.0469 39.5493 12.9699 39.5619 12.8978 39.5893C12.8257 39.6168 12.7598 39.6585 12.7042 39.7121C12.6486 39.7657 12.6043 39.8299 12.5741 39.9011C12.5439 39.9722 12.5284 40.0487 12.5285 40.126V42.8791H7.71865V33.1745C7.6981 32.8577 7.79748 32.5448 7.997 32.2982C8.19652 32.0516 8.48151 31.8894 8.79514 31.8438H11.3833C11.7072 31.8785 12.0057 32.0353 12.2184 32.2825C12.4311 32.5296 12.5419 32.8485 12.5285 33.1745ZM39.1428 23.7223H37.2647V22.3458H39.1428V23.7223Z" fill="black"/>
<path d="M39.9902 28.8155L38.7305 26.5212C38.6741 26.436 38.5975 26.3662 38.5076 26.3178C38.4177 26.2695 38.3172 26.2442 38.2151 26.2442C38.1131 26.2442 38.0126 26.2695 37.9227 26.3178C37.8328 26.3662 37.7562 26.436 37.6998 26.5212L36.4401 28.8155C36.265 29.1261 36.1742 29.4773 36.1767 29.8341C36.1793 30.1908 36.2751 30.5407 36.4547 30.8488C36.6343 31.1569 36.8913 31.4125 37.2002 31.5901C37.509 31.7677 37.859 31.8612 38.2151 31.8612C38.5713 31.8612 38.9212 31.7677 39.2301 31.5901C39.539 31.4125 39.796 31.1569 39.9756 30.8488C40.1551 30.5407 40.251 30.1908 40.2535 29.8341C40.2561 29.4773 40.1653 29.1261 39.9902 28.8155ZM39.1657 30.3296C39.0721 30.4967 38.9357 30.6358 38.7707 30.7325C38.6056 30.8293 38.4178 30.8803 38.2266 30.8803C38.0349 30.8828 37.8461 30.8328 37.6806 30.7358C37.5151 30.6388 37.3792 30.4983 37.2875 30.3296C37.1858 30.1683 37.1318 29.9814 37.1318 29.7905C37.1318 29.5996 37.1858 29.4127 37.2875 29.2514L38.2266 27.6225L39.1657 29.2514C39.2559 29.4167 39.3031 29.6021 39.3031 29.7905C39.3031 29.9789 39.2559 30.1643 39.1657 30.3296Z" fill="black"/>
<path d="M39.9902 36.0423L38.7305 33.7481C38.6741 33.6629 38.5975 33.593 38.5076 33.5447C38.4177 33.4964 38.3172 33.4711 38.2151 33.4711C38.1131 33.4711 38.0126 33.4964 37.9227 33.5447C37.8328 33.593 37.7562 33.6629 37.6998 33.7481L36.4401 36.0423C36.265 36.353 36.1742 36.7042 36.1767 37.0609C36.1793 37.4177 36.2751 37.7675 36.4547 38.0756C36.6343 38.3837 36.8913 38.6393 37.2002 38.817C37.509 38.9946 37.859 39.0881 38.2151 39.0881C38.5713 39.0881 38.9212 38.9946 39.2301 38.817C39.539 38.6393 39.796 38.3837 39.9756 38.0756C40.1551 37.7675 40.251 37.4177 40.2535 37.0609C40.2561 36.7042 40.1653 36.353 39.9902 36.0423ZM39.1657 37.5565C39.0721 37.7236 38.9357 37.8626 38.7707 37.9594C38.6056 38.0562 38.4178 38.1072 38.2266 38.1071C38.0349 38.1096 37.8461 38.0597 37.6806 37.9627C37.5151 37.8656 37.3792 37.7252 37.2875 37.5565C37.1858 37.3952 37.1318 37.2082 37.1318 37.0174C37.1318 36.8265 37.1858 36.6396 37.2875 36.4782L38.2266 34.8493L39.1657 36.4782C39.2442 36.6348 39.2851 36.8077 39.2851 36.983C39.2851 37.1582 39.2442 37.3311 39.1657 37.4877V37.5565Z" fill="black"/>
<path d="M39.9902 43.2691L38.7305 40.9749C38.6741 40.8897 38.5975 40.8198 38.5076 40.7715C38.4177 40.7231 38.3172 40.6978 38.2151 40.6978C38.1131 40.6978 38.0126 40.7231 37.9227 40.7715C37.8328 40.8198 37.7562 40.8897 37.6998 40.9749L36.4401 43.2691C36.265 43.5797 36.1742 43.9309 36.1767 44.2877C36.1793 44.6444 36.2751 44.9943 36.4547 45.3024C36.6343 45.6105 36.8913 45.8661 37.2002 46.0437C37.509 46.2214 37.859 46.3148 38.2151 46.3148C38.5713 46.3148 38.9212 46.2214 39.2301 46.0437C39.539 45.8661 39.796 45.6105 39.9756 45.3024C40.1551 44.9943 40.251 44.6444 40.2535 44.2877C40.2561 43.9309 40.1653 43.5797 39.9902 43.2691ZM39.1657 44.7833C39.0721 44.9503 38.9357 45.0894 38.7707 45.1862C38.6056 45.2829 38.4178 45.3339 38.2266 45.3339C38.0349 45.3364 37.8461 45.2864 37.6806 45.1894C37.5151 45.0924 37.3792 44.952 37.2875 44.7833C37.1858 44.6219 37.1318 44.435 37.1318 44.2441C37.1318 44.0533 37.1858 43.8663 37.2875 43.705L38.2266 42.0761L39.1657 43.705C39.2559 43.8703 39.3031 44.0557 39.3031 44.2441C39.3031 44.4325 39.2559 44.6179 39.1657 44.7833Z" fill="black"/>
<path d="M22.1481 44.3703C17.7676 44.3703 13.4855 43.0692 9.84327 40.6314C6.20104 38.1937 3.36227 34.7289 1.68593 30.675C0.00959652 26.6212 -0.429009 22.1605 0.425579 17.857C1.28017 13.5536 3.38957 9.60054 6.48703 6.49789C9.58449 3.39524 13.5309 1.28231 17.8272 0.426291C22.1235 -0.429728 26.5767 0.00961259 30.6238 1.68875C34.6708 3.3679 38.1298 6.21142 40.5635 9.85975C42.9972 13.5081 44.2961 17.7974 44.2961 22.1852C44.2901 28.0672 41.9547 33.7065 37.8024 37.8657C33.6502 42.0249 28.0202 44.3642 22.1481 44.3703ZM22.1481 1.74362C18.1119 1.74362 14.1663 2.9425 10.8103 5.18864C7.45437 7.43479 4.83871 10.6273 3.29412 14.3625C1.74954 18.0977 1.34541 22.2078 2.13283 26.1731C2.92025 30.1384 4.86386 33.7807 7.71789 36.6395C10.5719 39.4983 14.2081 41.4452 18.1668 42.2339C22.1254 43.0227 26.2287 42.6179 29.9576 41.0707C33.6866 39.5235 36.8738 36.9035 39.1162 33.5419C41.3586 30.1803 42.5554 26.2281 42.5554 22.1852C42.5433 16.7696 40.3886 11.5796 36.5635 7.75233C32.7383 3.92507 27.5546 1.77262 22.1481 1.76656V1.74362Z" fill="#5D1831"/>
<path d="M34.3507 4.5937L4.45386 34.5406L5.68472 35.7736L35.5816 5.82662L34.3507 4.5937Z" fill="#5D1831"/>
</svg>
