<svg width="52" height="72" viewBox="0 0 52 72" fill="none" xmlns="http://www.w3.org/2000/svg">
<path d="M46.8426 20.3498C46.8739 20.2593 46.9394 20.1845 47.0249 20.1417C47.1105 20.0988 47.2095 20.0912 47.3006 20.1204C47.3869 20.1562 47.4562 20.2236 47.4945 20.3089C47.5329 20.3942 47.5372 20.4909 47.5068 20.5793C45.9918 24.9253 43.2066 28.7144 39.5133 31.4539C36.1719 33.9145 32.2933 35.5425 28.1988 36.2029C24.1136 36.9197 19.9137 36.5882 15.991 35.2394C11.7948 33.7712 8.13333 31.0784 5.47815 27.5078C5.42348 27.4318 5.40121 27.3371 5.41624 27.2446C5.43128 27.1521 5.48238 27.0693 5.55831 27.0146C5.63424 26.9598 5.72878 26.9375 5.82113 26.9525C5.91348 26.9676 5.99608 27.0188 6.05075 27.0949C8.62515 30.5376 12.1657 33.1336 16.2201 34.5511C20.0333 35.8573 24.1134 36.1808 28.0843 35.4917C32.0725 34.8302 35.8433 33.2171 39.0781 30.7886C42.6478 28.1236 45.3496 24.4594 46.8426 20.2581V20.3498ZM46.8426 16.725L48.5604 10.5076C48.6211 10.1606 48.7746 9.83664 49.0045 9.57003C49.2343 9.30342 49.532 9.10417 49.8659 8.99342C50.1146 8.93644 50.373 8.93644 50.6217 8.99342C50.864 9.06914 51.0842 9.20303 51.263 9.38344C51.5003 9.6276 51.6695 9.92976 51.7539 10.2598C51.8383 10.5899 51.8349 10.9364 51.744 11.2647L50.1636 19.7533C50.1294 20.0276 50.1294 20.305 50.1636 20.5793C50.1818 20.7933 50.236 21.0028 50.324 21.1987C51.0454 22.7438 51.2772 24.4732 50.9882 26.1542C50.6327 28.0359 49.849 29.8102 48.6978 31.3392C48.6474 31.4184 48.5761 31.4819 48.4916 31.5227C48.3958 31.6048 48.282 31.6631 48.1594 31.6929C48.0368 31.7226 47.9089 31.723 47.7862 31.6939C47.6634 31.6649 47.5493 31.6072 47.453 31.5256C47.3567 31.4441 47.2809 31.3409 47.2319 31.2245C47.1174 33.794 45.7203 36.6618 38.4826 41.7779C38.3036 41.8936 38.0993 41.9644 37.8871 41.9844C37.6526 42.0296 37.4116 42.0296 37.1771 41.9844C36.9287 41.8873 36.7138 41.7199 36.5587 41.5026C36.4288 41.3201 36.3498 41.1063 36.3297 40.8831C36.3235 40.1566 36.4718 39.4371 36.7649 38.7725C36.9627 38.2433 37.1159 37.6984 37.2229 37.1436C35.9467 38.0345 34.9909 39.3136 34.4974 40.7914C33.0315 44.0951 31.5657 47.3987 20.5947 45.6092C20.2069 45.5998 19.8313 45.4717 19.5182 45.2422C19.0831 44.898 18.9914 44.4163 19.5182 43.6821C20.0838 43.1157 20.7054 42.6083 21.3734 42.1679C22.2045 41.6194 22.9726 40.9808 23.6638 40.2637L22.3354 41.0208C18.0524 43.4756 14.4794 45.6092 3.09615 37.2583C2.43193 36.6618 2.45484 36.1112 2.89001 35.6294C3.52005 35.1075 4.26644 34.7455 5.06588 34.574C5.45525 34.4364 5.84461 34.3217 6.16527 34.184C4.26805 33.169 2.68401 31.6537 1.58449 29.802C0.823147 28.5915 0.36515 27.2145 0.249501 25.7885C0.133852 24.3624 0.363976 22.9294 0.920277 21.6117V21.4511C0.95404 21.3738 1.00438 21.305 1.06772 21.2495C1.13107 21.194 1.20584 21.1531 1.28674 21.1299C1.53868 21.1299 1.83643 20.9922 2.11128 20.9234C4.13627 20.5925 6.21384 20.8887 8.06629 21.7723C10.0259 22.679 11.5891 24.2693 12.4638 26.246V25.8789C12.3781 25.1933 12.3781 24.4997 12.4638 23.8141C12.4638 23.1717 12.8761 22.8276 13.4945 22.9194C15.533 23.4012 17.4569 26.246 19.3579 29.0908C19.9305 29.9167 20.4802 30.7656 21.0299 31.5227C21.0412 31.3011 21.0412 31.079 21.0299 30.8574C20.7379 29.5891 20.7933 28.2654 21.1902 27.026C21.2869 26.8123 21.4261 26.6207 21.5994 26.4629C21.7727 26.305 21.9764 26.1844 22.198 26.1083C22.4166 26.0568 22.6451 26.0659 22.859 26.1346C23.0728 26.2033 23.264 26.3291 23.4119 26.4984C24.0761 27.0949 24.6716 27.7602 25.2671 28.4026C26.4548 29.9359 27.9844 31.1694 29.7334 32.0045C29.5152 31.3908 29.255 30.7928 28.9546 30.215C28.3169 29.2763 27.9885 28.1612 28.0156 27.026C28.0156 27.026 28.0156 27.026 28.0156 26.8884C28.4966 25.6495 31.2221 24.5942 34.1767 24.1812C35.6388 23.9332 37.1154 23.78 38.5972 23.7223C38.0246 23.4929 37.681 23.1717 37.8642 22.5523C38.0151 21.835 38.3155 21.1577 38.7457 20.5646C39.1759 19.9716 39.7263 19.4763 40.3608 19.111C41.7233 18.2296 43.3202 17.7818 44.9415 17.8262H45.0561C45.9264 17.8262 46.499 17.8262 46.7968 16.7479L46.8426 16.725ZM49.6597 10.8288L47.8732 17.0232C47.3235 18.9962 46.4303 18.9733 44.9874 18.9733C43.5702 18.9422 42.1782 19.3509 41.0021 20.1434C40.512 20.4147 40.0837 20.7854 39.7446 21.2318C39.4055 21.6781 39.1629 22.1904 39.0323 22.7358C39.0418 22.7889 39.0418 22.8433 39.0323 22.8964C39.0323 23.0341 39.0323 22.7129 39.1698 22.7358L39.7882 22.8964C40.7272 23.1029 41.8953 23.4012 42.2847 24.4565C42.3301 24.5904 42.3301 24.7356 42.2847 24.8695C42.257 24.9409 42.2153 25.0061 42.162 25.0612C42.1087 25.1162 42.045 25.16 41.9745 25.19C41.904 25.2199 41.8283 25.2354 41.7518 25.2355C41.6752 25.2356 41.5994 25.2204 41.5289 25.1906H41.3456C39.0574 24.8858 36.7342 24.9711 34.4745 25.443C31.8863 25.9019 29.5272 26.6131 29.2066 27.416C29.0692 27.8519 29.573 28.8614 30.054 29.8709C30.5039 30.6699 30.8429 31.5267 31.0618 32.4175C31.1094 32.5979 31.1094 32.7876 31.0618 32.9681C31.0378 33.099 30.9738 33.2193 30.8786 33.3122C30.7562 33.4078 30.616 33.478 30.4663 33.5187C30.3375 33.5409 30.2058 33.5409 30.0769 33.5187C27.8287 32.6908 25.8651 31.2336 24.4197 29.3203C23.8471 28.6779 23.2516 28.0355 22.6332 27.4619L22.4957 27.3472C22.4957 27.3472 22.3583 27.4619 22.2209 27.7143C21.986 28.7333 21.986 29.7925 22.2209 30.8115C22.3356 31.6629 22.3739 32.5228 22.3354 33.381C22.3372 33.4558 22.3216 33.53 22.2898 33.5977C22.258 33.6654 22.2109 33.7248 22.1522 33.771C22.0988 33.8266 22.0347 33.8707 21.9639 33.9009C21.8931 33.931 21.8169 33.9466 21.7399 33.9466C21.6629 33.9466 21.5868 33.931 21.5159 33.9009C21.4451 33.8707 21.3811 33.8266 21.3276 33.771C20.3038 32.5346 19.3626 31.2317 18.5105 29.8709C16.7469 27.2555 15.052 24.7318 13.5174 24.1582C13.5165 24.6889 13.5625 25.2187 13.6548 25.7413C13.8381 27.2784 14.0442 28.9761 13.0135 29.3891H12.8532C12.7019 29.4093 12.5487 29.3706 12.4251 29.281C12.3015 29.1913 12.217 29.0576 12.189 28.9073C12.1091 28.4652 12.002 28.0285 11.8683 27.5996C11.5628 26.5097 11.026 25.4987 10.2948 24.6356C9.56353 23.7724 8.65497 23.0775 7.63112 22.5982C5.98626 21.8371 4.15303 21.5816 2.36322 21.864H1.92805C1.47705 23.0064 1.30013 24.2388 1.41152 25.4621C1.5229 26.6855 1.91949 27.8655 2.56936 28.9073C3.63875 30.7262 5.23685 32.1749 7.15013 33.0598C7.32082 33.1258 7.46388 33.2482 7.55553 33.4067C7.64719 33.5653 7.68195 33.7505 7.65402 33.9316C7.62518 34.0908 7.54466 34.236 7.42498 34.3446C7.27995 34.5116 7.10014 34.6448 6.89819 34.7346C6.39638 34.9762 5.87544 35.1757 5.34073 35.3311C4.7662 35.463 4.21695 35.6877 3.71455 35.9964C14.5252 43.7968 17.7775 41.9385 21.717 39.6672C22.4041 39.2772 23.1141 38.8642 23.87 38.4972C24.0692 38.4213 24.2892 38.4213 24.4884 38.4972C24.5936 38.5189 24.6929 38.563 24.7798 38.6263C24.8667 38.6896 24.9391 38.7707 24.9923 38.8642C25.0792 39.0033 25.1339 39.1601 25.1526 39.3231C25.1729 39.6453 25.0929 39.966 24.9235 40.2408C24.1773 41.3477 23.2386 42.3112 22.1522 43.0856C21.5667 43.4743 21.0151 43.9117 20.5031 44.3933H20.7779C30.8786 46.0222 32.2299 43.1315 33.4438 40.2408C34.025 38.5078 35.1808 37.0262 36.719 36.0423C36.9118 35.9284 37.1201 35.8434 37.3375 35.79C37.5587 35.7488 37.7873 35.7952 37.9752 35.9192C38.1631 36.0433 38.2957 36.2354 38.3452 36.4553C38.3695 36.6611 38.3695 36.869 38.3452 37.0747C38.2244 37.7707 38.0404 38.4541 37.7955 39.1166C37.5797 39.6272 37.4482 40.1696 37.4062 40.7225H37.6352C46.3158 34.597 46.0638 32.0274 45.789 29.1138C45.7362 28.3499 45.7362 27.5834 45.789 26.8195C45.7948 26.578 45.8933 26.348 46.0638 26.1772C46.1934 26.048 46.3631 25.9671 46.5448 25.9477C46.7125 25.9423 46.8786 25.9819 47.0258 26.0625C47.2886 26.2254 47.4838 26.478 47.5755 26.7737C47.7617 27.4316 47.8693 28.1093 47.8961 28.7926C47.8961 29.2285 47.8961 29.6644 48.0336 29.9856C48.8874 28.7104 49.472 27.2739 49.7514 25.7642C49.9921 24.3142 49.7843 22.8252 49.1559 21.4969C49.0131 21.1699 48.9279 20.8206 48.9039 20.4645C48.8468 20.0997 48.8468 19.7282 48.9039 19.3633L50.553 10.9665C50.6033 10.8286 50.6171 10.6801 50.593 10.5353C50.5689 10.3906 50.5078 10.2546 50.4156 10.1405C50.4156 10.1405 50.4156 10.1405 50.2781 10.1405H50.1636C49.9804 10.1405 49.7743 10.4158 49.6597 10.8517V10.8288ZM26.7101 51.9643H25.6794V50.9089H26.7101V51.9643ZM26.7101 56.3921H25.6794V55.3597H26.7101V56.3921ZM26.7101 60.82H25.6794V59.7876H26.7101V60.82ZM26.7101 21.2216H25.6794V20.1434H26.7101V21.2216ZM26.7101 17.0691H25.6794V16.0367H26.7101V17.0691ZM26.7101 12.9165H25.6794V11.8841H26.7101V12.9165Z" fill="#191817"/>
<path d="M26.1603 63.5271C27.1034 63.5285 28.0169 63.8575 28.7451 64.4578C29.4732 65.0582 29.9711 65.8929 30.1538 66.8198C30.3365 67.7466 30.1927 68.7082 29.747 69.5407C29.3013 70.3733 28.5812 71.0253 27.7094 71.3857C26.8376 71.7461 25.868 71.7926 24.9658 71.5172C24.0636 71.2419 23.2847 70.6617 22.7616 69.8756C22.2386 69.0895 22.0038 68.146 22.0973 67.206C22.1908 66.2659 22.6068 65.3874 23.2744 64.7201C23.6536 64.3411 24.1036 64.0406 24.5988 63.8359C25.094 63.6312 25.6246 63.5263 26.1603 63.5271Z" fill="#5D1830"/>
<path d="M26.1832 7.96866e-08C27.2716 -0.000213343 28.3163 0.428285 29.092 1.193C29.8529 1.96205 30.2798 3.00098 30.2798 4.08372C30.2798 5.16646 29.8529 6.20539 29.092 6.97444C28.3204 7.73802 27.2794 8.16621 26.1947 8.16621C25.11 8.16621 24.069 7.73802 23.2973 6.97444C22.7564 6.39914 22.3938 5.67899 22.2534 4.90134C22.113 4.12368 22.2009 3.32193 22.5064 2.59331C22.8119 1.8647 23.3219 1.24053 23.9746 0.796501C24.6272 0.352474 25.3944 0.107667 26.1832 0.091769V7.96866e-08Z" fill="#5D1830"/>
</svg>
