<svg width="64" height="73" viewBox="0 0 64 73" fill="none" xmlns="http://www.w3.org/2000/svg">
<path fill-rule="evenodd" clip-rule="evenodd" d="M32 20.5315C30.4762 19.3544 25.7016 17 18.7937 17C10.1587 17 0 24.0631 0 37.6847C0 51.3063 10.6667 73 23.873 73C27.9365 73 32 71.991 32 70.982C32 71.991 36.0635 73 40.127 73C53.3333 73 64 51.3063 64 37.6847C64 24.0631 53.8413 17 45.2063 17C38.2984 17 33.5238 19.3544 32 20.5315Z" fill="white"/>
<path fill-rule="evenodd" clip-rule="evenodd" d="M32 14.4418C31.9998 12.4331 31.0648 8.26317 27.1751 4.39017C22.9467 0.179925 18.6863 -0.23472 17.0846 0.0842378C16.7643 1.8385 17.1807 6.39958 21.4091 10.6098C25.6375 14.8201 30.2183 15.2347 31.9801 14.9158C31.9929 14.7753 32 14.6169 32 14.4421C32 14.6169 32.0071 14.7753 32.0199 14.9158C33.7817 15.2347 38.3625 14.8201 42.5909 10.6098C46.8193 6.39958 47.2357 1.8385 46.9154 0.0842378C45.3137 -0.23472 41.0533 0.179925 36.8249 4.39017C32.9352 8.26317 32.0002 12.4331 32 14.4418Z" fill="white"/>
<path fill-rule="evenodd" clip-rule="evenodd" d="M32 14.4418C31.9998 12.4331 31.0648 8.26317 27.1751 4.39017C22.9467 0.179925 18.6863 -0.23472 17.0846 0.0842378C16.7643 1.8385 17.1807 6.39958 21.4091 10.6098C25.6375 14.8201 30.2183 15.2347 31.9801 14.9158C31.9929 14.7753 32 14.6169 32 14.4421C32 14.6169 32.0071 14.7753 32.0199 14.9158C33.7817 15.2347 38.3625 14.8201 42.5909 10.6098C46.8193 6.39958 47.2357 1.8385 46.9154 0.0842378C45.3137 -0.23472 41.0533 0.179925 36.8249 4.39017C32.9352 8.26317 32.0002 12.4331 32 14.4418Z" fill="white"/>
<path fill-rule="evenodd" clip-rule="evenodd" d="M32 14.4418C31.9998 12.4331 31.0648 8.26317 27.1751 4.39017C22.9467 0.179925 18.6863 -0.23472 17.0846 0.0842378C16.7643 1.8385 17.1807 6.39958 21.4091 10.6098C25.6375 14.8201 30.2183 15.2347 31.9801 14.9158C31.9929 14.7753 32 14.6169 32 14.4421C32 14.6169 32.0071 14.7753 32.0199 14.9158C33.7817 15.2347 38.3625 14.8201 42.5909 10.6098C46.8193 6.39958 47.2357 1.8385 46.9154 0.0842378C45.3137 -0.23472 41.0533 0.179925 36.8249 4.39017C32.9352 8.26317 32.0002 12.4331 32 14.4418Z" fill="white"/>
<path d="M25.9341 39.25C25.9341 46.3555 25.9341 48.116 25.9341 52.2674C25.9341 55.7086 28.7237 58.5 32.1648 58.5V58.5C35.606 58.5 38.3956 55.7104 38.3956 52.2692V39.25" stroke="#D7133D" stroke-width="4"/>
<ellipse cx="25.8352" cy="32.6696" rx="1.68132" ry="1.66964" fill="#D7133D"/>
<ellipse cx="38.3187" cy="32.6696" rx="1.68132" ry="1.66964" fill="#D7133D"/>
</svg>
