<svg width="36" height="77" viewBox="0 0 36 77" fill="none" xmlns="http://www.w3.org/2000/svg">
<path d="M17.5036 0C10.8243 0 10.3105 5.13333 10.3105 6.16V8.21333C10.3105 8.72667 12.8795 9.24 13.3933 9.24H14.9346V11.2933C14.2496 11.4644 12.8795 11.9093 12.8795 12.32C12.8795 12.4569 12.441 12.4843 11.7298 12.5287C9.7739 12.6508 5.75492 12.9018 3.11747 15.9133C0.24025 19.1987 -0.136529 22.4156 0.0347342 23.6133V73.4067C0.0347342 73.92 0.445766 74.9467 2.08989 74.9467C4.14505 74.9467 5.68642 74.9467 6.714 75.46C7.74158 75.9733 9.79674 77 11.8519 77H23.833C25.9428 77 28.0526 75.9733 29.1075 75.46C30.1624 74.9467 31.7447 74.9467 33.8545 74.9467C35.5424 74.9467 35.9643 73.92 35.9643 73.4067V23.6133C36.1402 22.4156 35.7534 19.1987 32.7996 15.9133C30.0921 12.9018 25.9662 12.6508 23.9583 12.5287C23.2282 12.4843 22.7781 12.4569 22.7781 12.32C22.7781 11.9093 21.3715 11.4644 20.6683 11.2933V9.24H22.2506C22.7781 9.24 25.4153 8.72667 25.4153 8.21333V6.16C25.4153 5.13333 24.8879 0 18.031 0H17.5036Z" fill="white"/>
<path d="M11.9336 36.6666C11.9336 43.7721 11.9336 45.5326 11.9336 49.684C11.9336 53.1252 14.7232 55.9166 18.1644 55.9166V55.9166C21.6055 55.9166 24.3951 53.127 24.3951 49.6859V36.6666" stroke="#ABB140" stroke-width="4"/>
<ellipse cx="11.8356" cy="30.0863" rx="1.68132" ry="1.66964" fill="#ABB140"/>
<ellipse cx="24.319" cy="30.0863" rx="1.68132" ry="1.66964" fill="#ABB140"/>
</svg>
