<svg width="79" height="80" viewBox="0 0 79 80" fill="none" xmlns="http://www.w3.org/2000/svg">
<path d="M67.6266 58.7805C67.2457 58.9989 66.8455 59.1821 66.4311 59.3279V79.034C68.7861 78.4196 70.9869 77.323 72.8933 75.8141C76.7382 72.5941 78.6931 68.0218 78.6931 62.0487V47.6394C77.8102 49.0734 76.822 50.4402 75.7366 51.7288C73.439 54.4939 70.7119 56.8746 67.6589 58.7805H67.6266Z" fill="#5D1830"/>
<path d="M54.9284 59.7303C54.9299 61.1067 54.6207 62.4658 54.0237 63.707L61.8268 66.4118V59.3278L54.9284 56.9451V59.7303Z" fill="#5D1830"/>
<path d="M36.592 50.5696L0.32312 37.9795V45.0795L36.592 57.6535V50.5696Z" fill="#5D1830"/>
<path d="M45.7683 68.875C43.867 68.8522 42.0192 68.2444 40.4778 67.1349C38.9364 66.0253 37.7767 64.4682 37.1575 62.6766L0.32312 49.9094V55.9147C0.331216 56.3977 0.49159 56.866 0.781532 57.2532C1.07147 57.6403 1.47629 57.9268 1.93866 58.072L61.8429 78.8891V71.2578L50.7442 67.4099C49.2604 68.3626 47.5334 68.8711 45.7683 68.875Z" fill="#5D1830"/>
<path d="M26.6403 20.0282C26.6345 21.9005 27.1607 23.7363 28.158 25.3232C29.1553 26.91 30.5829 28.1831 32.2759 28.9951C33.9688 29.8072 35.8579 30.125 37.7245 29.912C39.5912 29.6989 41.3592 28.9636 42.824 27.791C44.2888 26.6185 45.3907 25.0567 46.0021 23.2862C46.6135 21.5157 46.7095 19.609 46.2789 17.7864C45.8484 15.9638 44.909 14.2999 43.5693 12.9872C42.2295 11.6745 40.5443 10.7665 38.7084 10.3683C38.3832 8.49728 37.6197 6.72909 36.48 5.20731C35.3404 3.68553 33.8566 2.45306 32.1493 1.60998L31.5031 1.28798C31.2332 1.14956 30.9385 1.06589 30.6359 1.0418C30.3334 1.01772 30.029 1.05371 29.7405 1.14768C29.452 1.24165 29.1851 1.39174 28.9552 1.58925C28.7254 1.78677 28.5371 2.02777 28.4014 2.29831C28.2656 2.56885 28.1851 2.86354 28.1645 3.16531C28.1439 3.46709 28.1835 3.76994 28.2812 4.05632C28.3788 4.34271 28.5326 4.60694 28.7334 4.8337C28.9343 5.06045 29.1783 5.24524 29.4513 5.37734L30.0976 5.69933C31.0614 6.17887 31.9115 6.85772 32.5913 7.69059C33.271 8.52346 33.7647 9.49121 34.0395 10.5293C31.9205 11.0925 30.0471 12.3364 28.7094 14.0682C27.3717 15.8 26.6444 17.9232 26.6403 20.1087V20.0282Z" fill="#5D1830"/>
<path d="M78.6608 31.5234C78.6608 30.8794 78.5154 15.971 65.3002 8.19478C65.0095 8.03305 64.687 7.93632 64.355 7.9113C64.023 7.88627 63.6895 7.93356 63.3777 8.04988L49.2579 12.8798C50.3033 14.7273 50.929 16.7809 51.0908 18.8957C51.2526 21.0105 50.9465 23.1349 50.1943 25.1189C49.442 27.1029 48.2618 28.8981 46.7371 30.3779C45.2124 31.8576 43.3804 32.9857 41.3703 33.6826C39.3602 34.3794 37.2211 34.6281 35.104 34.4109C32.9869 34.1937 30.9435 33.516 29.1181 32.4256C27.2926 31.3352 25.7296 29.8588 24.5394 28.1005C23.3491 26.3423 22.5608 24.3451 22.2299 22.2499L1.85791 29.366C1.408 29.5208 1.01802 29.8121 0.742746 30.199C0.467474 30.586 0.320739 31.0491 0.323149 31.5234C0.331245 32.0065 0.491619 32.4747 0.781561 32.8619C1.0715 33.2491 1.47632 33.5356 1.93869 33.6808L41.2448 47.3173V59.7303C41.2448 60.943 41.7282 62.106 42.5887 62.9634C43.4491 63.8209 44.6161 64.3026 45.833 64.3026C47.0498 64.3026 48.2168 63.8209 49.0773 62.9634C49.9377 62.106 50.4211 60.943 50.4211 59.7303V50.5051L63.4424 55.0292C63.687 55.1122 63.9433 55.1556 64.2017 55.158C64.6113 55.156 65.0129 55.0449 65.3649 54.836C65.898 54.514 78.7254 46.786 78.7254 31.5234H78.6608ZM54.1853 33.0368C53.7346 33.0241 53.2975 32.8794 52.9289 32.6206C52.5602 32.3618 52.2763 32.0005 52.1125 31.5818C51.9487 31.1631 51.9124 30.7056 52.0081 30.2664C52.1038 29.8273 52.3272 29.426 52.6505 29.1127C52.9737 28.7994 53.3825 28.5879 53.8256 28.5048C54.2688 28.4217 54.7267 28.4706 55.1421 28.6453C55.5575 28.8201 55.9121 29.113 56.1614 29.4874C56.4108 29.8619 56.5438 30.3012 56.544 30.7506C56.544 31.357 56.3023 31.9385 55.8721 32.3672C55.4419 32.7959 54.8584 33.0368 54.2499 33.0368H54.1853ZM58.7735 43.711C58.3197 43.711 57.8762 43.5769 57.4989 43.3257C57.1217 43.0745 56.8276 42.7174 56.654 42.2997C56.4804 41.8819 56.4349 41.4223 56.5235 40.9788C56.612 40.5353 56.8305 40.128 57.1513 39.8082C57.4721 39.4885 57.8809 39.2708 58.3259 39.1826C58.7709 39.0943 59.2322 39.1396 59.6514 39.3127C60.0705 39.4857 60.4288 39.7787 60.6809 40.1547C60.933 40.5306 61.0675 40.9726 61.0675 41.4248C61.0675 42.0311 60.8258 42.6126 60.3956 43.0414C59.9654 43.4701 59.3819 43.711 58.7735 43.711ZM63.3616 23.8921C62.9079 23.8921 62.4643 23.758 62.0871 23.5068C61.7098 23.2556 61.4158 22.8986 61.2421 22.4808C61.0685 22.0631 61.0231 21.6034 61.1116 21.1599C61.2001 20.7164 61.4186 20.3091 61.7394 19.9894C62.0603 19.6696 62.469 19.4519 62.914 19.3637C63.359 19.2755 63.8203 19.3207 64.2395 19.4938C64.6587 19.6668 65.017 19.9598 65.269 20.3358C65.5211 20.7118 65.6557 21.1538 65.6557 21.6059C65.6557 21.9062 65.5963 22.2034 65.481 22.4808C65.3657 22.7582 65.1968 23.0102 64.9837 23.2225C64.7707 23.4348 64.5178 23.6032 64.2395 23.7181C63.9612 23.833 63.6629 23.8921 63.3616 23.8921ZM66.4311 34.5663C65.9774 34.5663 65.5339 34.4322 65.1566 34.181C64.7793 33.9298 64.4853 33.5727 64.3117 33.155C64.138 32.7372 64.0926 32.2776 64.1811 31.8341C64.2696 31.3906 64.4881 30.9833 64.809 30.6635C65.1298 30.3438 65.5386 30.1261 65.9836 30.0379C66.4286 29.9497 66.8898 29.9949 67.309 30.168C67.7282 30.341 68.0865 30.634 68.3386 31.01C68.5906 31.3859 68.7252 31.8279 68.7252 32.2801C68.7252 32.5803 68.6658 32.8776 68.5506 33.155C68.4353 33.4324 68.2663 33.6844 68.0533 33.8967C67.8402 34.109 67.5873 34.2774 67.309 34.3923C67.0307 34.5072 66.7324 34.5663 66.4311 34.5663Z" fill="#5D1830"/>
</svg>
