<svg width="79" height="80" viewBox="0 0 79 80" fill="none" xmlns="http://www.w3.org/2000/svg">
<g clip-path="url(#clip0)">
<path d="M11.0342 31.2176L14.6368 72.2238C14.83 74.3692 15.8199 76.3655 17.4126 77.8217C19.0054 79.2779 21.0862 80.0892 23.2477 80.0966H55.7362C57.9025 80.0985 59.9902 79.2881 61.5845 77.8265C63.185 76.3757 64.1725 74.3729 64.3471 72.2238L67.9659 31.2176H11.0342ZM21.8098 52.1473C21.53 52.8934 21.1137 53.5812 20.582 54.1759C20.1448 54.5849 19.5661 54.8098 18.9665 54.8038H18.708H18.4818H18.2395V52.8074C18.5999 52.8322 18.9583 52.7358 19.2573 52.5337C19.4906 52.3223 19.6681 52.0569 19.7743 51.7609L16.9471 44.677H19.225L20.8405 49.2655L22.4561 44.677H24.7986L21.8098 52.1473ZM32.5694 49.9094C32.3791 50.364 32.1051 50.779 31.7616 51.133C31.4087 51.4748 30.9986 51.7527 30.5499 51.9541C30.0846 52.1488 29.5845 52.2474 29.0798 52.2439C28.5699 52.2473 28.0645 52.1488 27.5935 51.9541C27.1497 51.7525 26.745 51.4746 26.398 51.133C26.0355 50.7727 25.7499 50.3431 25.5583 49.87C25.3668 49.3969 25.2732 48.89 25.2833 48.38C25.2781 47.8612 25.377 47.3467 25.5741 46.8666C25.7659 46.409 26.0459 45.9934 26.398 45.643C26.7364 45.2913 27.1432 45.0119 27.5935 44.8219C28.061 44.6145 28.568 44.5101 29.0798 44.516C29.5864 44.5099 30.0881 44.6143 30.5499 44.8219C31.0051 45.0116 31.4172 45.2909 31.7616 45.643C32.1086 45.9943 32.383 46.41 32.5694 46.8666C32.7791 47.3434 32.8838 47.8594 32.8763 48.38C32.8841 48.9057 32.7795 49.4271 32.5694 49.9094ZM41.2771 51.4389C41.278 51.9036 41.1846 52.3636 41.0025 52.7913C40.8295 53.192 40.5767 53.5535 40.2593 53.8539C39.9181 54.1668 39.517 54.4078 39.08 54.5623C38.5942 54.7414 38.0792 54.8288 37.5614 54.8199C36.9665 54.8423 36.3761 54.7091 35.8489 54.4335C35.4538 54.209 35.099 53.9207 34.7988 53.5802C34.4823 53.2116 34.2408 52.7851 34.088 52.3244L36.2689 52.1634C36.3308 52.3062 36.4248 52.4329 36.5436 52.5337C36.6632 52.6286 36.7933 52.7096 36.9313 52.7752C37.1305 52.8584 37.3456 52.8969 37.5614 52.8879C37.7633 52.8954 37.9647 52.8621 38.1535 52.7902C38.3422 52.7183 38.5145 52.6091 38.66 52.4693C38.9257 52.2226 39.0825 51.8811 39.0961 51.5194V51.0364C38.9578 51.1602 38.8061 51.2682 38.6438 51.3584C38.4586 51.4541 38.2636 51.5297 38.0622 51.5838C37.7933 51.6534 37.5161 51.6859 37.2383 51.6804C36.7826 51.6796 36.3319 51.5865 35.9135 51.4067C35.5024 51.2311 35.1305 50.9755 34.8198 50.6548C34.5091 50.3341 34.2658 49.9548 34.1041 49.5392C33.7602 48.6368 33.7602 47.6401 34.1041 46.7378C34.2689 46.3225 34.5162 45.9446 34.8311 45.6269C35.1379 45.2972 35.5106 45.0351 35.9252 44.8577C36.3398 44.6802 36.7871 44.5912 37.2383 44.5965C37.5339 44.595 37.8281 44.6384 38.1107 44.7253C38.3414 44.8239 38.563 44.9425 38.773 45.0795C38.9716 45.199 39.1606 45.3336 39.3385 45.482L39.6616 44.7575H41.2771V51.4389ZM49.9203 52.0829H48.3047L47.9816 51.3584C47.7897 51.511 47.5842 51.6457 47.3677 51.7609C47.1474 51.8825 46.9145 51.9796 46.673 52.0507C46.3896 52.1319 46.0955 52.1699 45.8006 52.1634C45.387 52.1716 44.9757 52.1005 44.589 51.9541C44.2282 51.8183 43.9026 51.6038 43.6358 51.3262C43.3669 51.0373 43.1583 50.698 43.0219 50.328C42.8741 49.9094 42.8029 49.4677 42.8119 49.024V44.677H44.9929V48.6215C44.9683 49.0306 45.1012 49.4336 45.3644 49.7485C45.4924 49.8836 45.6482 49.9895 45.8211 50.059C45.9939 50.1284 46.1799 50.1598 46.3661 50.1509C46.5499 50.1596 46.7333 50.1281 46.9036 50.0586C47.0738 49.989 47.2267 49.8832 47.3516 49.7485C47.6207 49.436 47.7594 49.0327 47.7393 48.6215V44.677H49.9203V52.0829ZM55.8978 46.931H55.6716H55.4131H55.09C54.9038 46.9221 54.7179 46.9535 54.545 47.023C54.3721 47.0924 54.2163 47.1984 54.0884 47.3335C53.8251 47.6483 53.6922 48.0514 53.7168 48.4605V52.2439H51.5358V44.838H53.1514L53.4745 45.643C53.6067 45.4744 53.7648 45.3277 53.943 45.2083C54.1083 45.0774 54.2938 44.9741 54.4923 44.9024C54.7325 44.802 54.9911 44.7527 55.2516 44.7575H55.5101H55.7201H55.8978V46.931ZM61.3906 46.6895H59.7751V49.1045C59.7654 49.2451 59.7847 49.3863 59.832 49.5192C59.8792 49.6522 59.9533 49.774 60.0497 49.8772C60.1405 49.9679 60.249 50.039 60.3685 50.0861C60.488 50.1332 60.616 50.1552 60.7444 50.1509H60.9706H61.1483H61.3098V52.0829L61.0191 52.1634C60.7667 52.1906 60.5121 52.1906 60.2597 52.1634C59.569 52.2063 58.8894 51.9747 58.3696 51.5194C58.1231 51.2418 57.9347 50.918 57.8154 50.5669C57.6961 50.2158 57.6483 49.8445 57.6749 49.4748V46.6895H56.544V44.838H57.1094C57.2299 44.8539 57.3524 44.8419 57.4675 44.803C57.5825 44.7641 57.687 44.6994 57.773 44.6138C57.8589 44.5281 57.9239 44.424 57.9629 44.3093C58.0019 44.1946 58.0139 44.0726 57.998 43.9525V42.906H59.8559V44.677H61.4714L61.3906 46.6895Z" fill="#5D1830"/>
<path d="M75.6397 14.7796H3.34416C2.7186 14.7796 2.11866 15.0273 1.67632 15.4681C1.23398 15.9089 0.985474 16.5068 0.985474 17.1302C0.985474 17.7536 1.23398 18.3515 1.67632 18.7923C2.11866 19.2331 2.7186 19.4808 3.34416 19.4808H5.70286C5.70286 21.351 6.44837 23.1446 7.77539 24.4671C8.43246 25.1219 9.21252 25.6413 10.071 25.9957C10.9295 26.3501 11.8497 26.5325 12.7789 26.5325H66.2372C68.1111 26.5282 69.9068 25.7834 71.2303 24.4614C72.5538 23.1394 73.2971 21.3482 73.2971 19.4808H75.6558C76.2814 19.4808 76.8813 19.2331 77.3237 18.7923C77.766 18.3515 78.0145 17.7536 78.0145 17.1302C78.0145 16.5068 77.766 15.9089 77.3237 15.4681C76.8813 15.0273 76.2814 14.7796 75.6558 14.7796H75.6397Z" fill="#5D1830"/>
<path d="M13.8614 10.0785H26.5596L22.2622 2.64035C21.5015 1.44195 20.305 0.583364 18.9233 0.244431C17.5415 -0.0945026 16.0818 0.112508 14.8498 0.822104C13.6179 1.5317 12.7092 2.68884 12.3141 4.05115C11.9191 5.41346 12.0683 6.87527 12.7305 8.13039L13.8614 10.0785Z" fill="#5D1830"/>
<path d="M30.6953 48.3799C30.7169 48.8736 30.5494 49.3571 30.2268 49.7323C30.0828 49.8928 29.9058 50.0204 29.7079 50.1066C29.5099 50.1927 29.2957 50.2353 29.0797 50.2314C28.8636 50.2364 28.649 50.1943 28.4509 50.1081C28.2528 50.0219 28.076 49.8936 27.9327 49.7323C27.6287 49.3466 27.4635 48.8704 27.4635 48.3799C27.4635 47.8895 27.6287 47.4133 27.9327 47.0276C28.076 46.8662 28.2528 46.738 28.4509 46.6518C28.649 46.5656 28.8636 46.5235 29.0797 46.5285C29.2957 46.5246 29.5099 46.5672 29.7079 46.6533C29.9058 46.7394 30.0828 46.8671 30.2268 47.0276C30.5494 47.4028 30.7169 47.8862 30.6953 48.3799Z" fill="#5D1830"/>
<path d="M39.0961 48.1384C39.1173 48.3482 39.0928 48.56 39.0243 48.7595C38.9558 48.959 38.8449 49.1413 38.6992 49.2942C38.5535 49.447 38.3764 49.5667 38.18 49.6451C37.9836 49.7235 37.7726 49.7588 37.5613 49.7484C37.3486 49.7645 37.135 49.7331 36.9359 49.6567C36.7368 49.5803 36.5573 49.4607 36.4104 49.3065C36.2635 49.1524 36.1528 48.9676 36.0864 48.7656C36.02 48.5636 35.9996 48.3493 36.0266 48.1384C36.0174 47.9352 36.0508 47.7322 36.1247 47.5425C36.1985 47.3528 36.3113 47.1805 36.4557 47.0366C36.6001 46.8927 36.7729 46.7804 36.9633 46.7067C37.1537 46.6331 37.3573 46.5998 37.5613 46.609C37.7647 46.6022 37.9673 46.6372 38.1565 46.7117C38.3458 46.7862 38.5177 46.8986 38.6616 47.042C38.8055 47.1854 38.9183 47.3567 38.993 47.5453C39.0677 47.7339 39.1028 47.9358 39.0961 48.1384Z" fill="#5D1830"/>
</g>
<defs>
<clipPath id="clip0">
<rect width="79" height="80" fill="white"/>
</clipPath>
</defs>
</svg>
