<svg width="77" height="80" viewBox="0 0 77 80" fill="none" xmlns="http://www.w3.org/2000/svg">
<path d="M38.5157 59.2795C49.3335 56.3333 51.8687 42.6806 38.5157 37.1423C25.7139 41.94 27.0996 56.0918 38.5157 59.2795Z" fill="#5D1830"/>
<path d="M40.0432 16.5989C40.0432 6.93902 39.9015 8.13041 40.3581 8.6295C40.5628 8.8549 45.3655 14.0712 51.5538 14.0712C56.7029 14.0712 60.7025 10.8513 64.151 7.03562C60.7025 3.21996 56.6872 0 51.5538 0C45.3655 0 40.5313 5.21634 40.3581 5.44174C39.9015 5.94083 40.0432 6.47213 40.0432 2.35057H35.461V16.4218C24.1393 15.2787 13.2428 19.9638 8.69206 30.9922C4.47202 41.1511 5.54277 60.2616 14.6285 71.2417C20.7696 78.6476 29.934 82.3506 38.5315 78.1968C52.0105 84.6367 70.3708 72.4653 70.7172 44.7253C70.9849 22.5397 55.3487 14.3127 40.0432 16.5989ZM38.563 32.1996C58.0099 38.6396 55.3645 60.7285 38.563 64.0612C21.1632 60.6319 19.4311 37.6736 38.563 32.1996Z" fill="#5D1830"/>
</svg>
