<svg width="260" height="68" viewBox="0 0 260 68" fill="none" xmlns="http://www.w3.org/2000/svg">
<g clip-path="url(#clip0)">
<path d="M115.695 26.5044V3.1687H129.258V65.9561H115.695V60.0113C114.323 63.9745 108.963 66.7737 102.048 66.7737C95.5955 66.7737 90.1367 64.5288 85.7557 60.0113C81.4726 55.4107 79.2891 49.8401 79.2891 43.2578C79.2891 36.6895 81.4726 31.105 85.7557 26.5875C90.1227 22.0008 95.5815 19.742 102.048 19.742C108.963 19.742 114.323 22.5412 115.695 26.5044ZM112.966 51.3644C115.331 49.1195 116.507 46.4173 116.507 43.2578C116.507 40.1122 115.317 37.4101 112.966 35.2345C110.698 32.9896 107.871 31.9087 104.498 31.9087C101.222 31.9087 98.4929 32.9896 96.2114 35.2345C93.9299 37.3962 92.8521 40.0984 92.8521 43.2578C92.8521 46.4173 93.9439 49.1195 96.2114 51.3644C98.4789 53.5261 101.208 54.607 104.498 54.607C107.871 54.607 110.684 53.5261 112.966 51.3644Z" fill="black"/>
<path d="M135.557 43.1609C135.557 36.0382 137.824 30.3706 142.387 26.0471C147.034 21.6266 152.857 19.4788 159.855 19.4788C166.686 19.4788 172.313 21.7236 176.596 26.1441C180.865 30.5507 183.048 35.9551 183.048 42.4542C183.048 43.9923 182.95 45.5166 182.782 46.8746H149.12C149.386 52.279 154.033 55.7017 161.227 55.7017C167.778 55.7017 173.237 54.2606 177.506 51.2951V63.0045C173.139 65.8037 167.498 67.1478 160.499 67.1478C153.039 67.1478 147.034 64.9861 142.387 60.7458C137.838 56.4223 135.557 50.7408 135.557 43.632V43.1609ZM169.401 38.1168C169.401 34.0705 165.216 30.6477 159.841 30.6477C157.014 30.6477 154.565 31.3683 152.465 32.8095C150.379 34.2506 149.288 36.0521 149.19 38.1168H169.401Z" fill="black"/>
<path d="M223.374 26.5045V20.5598H236.923V65.9563H223.374V60.0115C222.002 63.9747 216.641 66.7738 209.727 66.7738C203.274 66.7738 197.815 64.529 193.448 60.0115C189.165 55.4109 186.981 49.8402 186.981 43.258C186.981 36.6897 189.165 31.1052 193.448 26.5877C197.815 22.0009 203.274 19.7422 209.727 19.7422C216.641 19.7422 222.016 22.5414 223.374 26.5045ZM220.644 51.3645C223.01 49.1197 224.185 46.4175 224.185 43.258C224.185 40.1124 222.996 37.4102 220.644 35.2346C218.377 32.9898 215.549 31.9089 212.176 31.9089C208.901 31.9089 206.171 32.9898 203.89 35.2346C201.622 37.3964 200.531 40.0986 200.531 43.258C200.531 46.4175 201.622 49.1197 203.89 51.3645C206.157 53.5263 208.901 54.6071 212.176 54.6071C215.549 54.6071 218.377 53.5263 220.644 51.3645Z" fill="black"/>
<path d="M259.5 3.1687H245.937V65.9561H259.5V3.1687Z" fill="black"/>
<path d="M52.2888 15.3771V51.406H15.8967V15.3771H52.2888ZM67.6855 0.134033H0.5V66.649H67.6855V0.134033Z" fill="url(#paint0_linear)"/>
</g>
<defs>
<linearGradient id="paint0_linear" x1="0.5" y1="0.134033" x2="67.0116" y2="67.3161" gradientUnits="userSpaceOnUse">
<stop stop-color="#4854A2"/>
<stop offset="1" stop-color="#772088"/>
</linearGradient>
<clipPath id="clip0">
<rect width="259" height="67" fill="white" transform="translate(0.5 0.134033)"/>
</clipPath>
</defs>
</svg>
