<svg width="45" height="80" viewBox="0 0 45 80" fill="none" xmlns="http://www.w3.org/2000/svg">
<g clip-path="url(#clip0)">
<path d="M3.93985e-09 56.9612V23.3608C-1.33462e-05 23.1903 0.0339009 23.0215 0.0997755 22.8642C0.16565 22.7069 0.262174 22.5642 0.383749 22.4444C0.505323 22.3245 0.649529 22.23 0.808002 22.1662C0.966474 22.1025 1.13606 22.0707 1.30692 22.0729H11.0846C11.2555 22.0707 11.4251 22.1025 11.5835 22.1662C11.742 22.23 11.8862 22.3245 12.0078 22.4444C12.1294 22.5642 12.2259 22.7069 12.2918 22.8642C12.3576 23.0215 12.3916 23.1903 12.3915 23.3608V56.9612C12.3915 63.8358 16.4898 68.231 22.5081 68.231C28.5264 68.231 32.6085 63.7553 32.6085 56.9612V23.3608C32.6084 23.1903 32.6424 23.0215 32.7082 22.8642C32.7741 22.7069 32.8706 22.5642 32.9922 22.4444C33.1138 22.3245 33.258 22.23 33.4165 22.1662C33.5749 22.1025 33.7445 22.0707 33.9154 22.0729H43.7092C44.0516 22.0729 44.3799 22.2086 44.6219 22.4501C44.864 22.6916 45 23.0192 45 23.3608V56.9612C45 71.1934 34.9964 80 22.5081 80C10.0197 80 3.93985e-09 71.1934 3.93985e-09 56.9612Z" fill="#5D1830"/>
<path d="M38.8042 9.65989C37.5205 9.65989 36.2893 9.15102 35.3815 8.24523C34.4738 7.33944 33.9638 6.11093 33.9638 4.82995C33.9638 3.54896 34.4738 2.32045 35.3815 1.41466C36.2893 0.508868 37.5205 0 38.8042 0V0C40.088 0 41.3192 0.508868 42.2269 1.41466C43.1347 2.32045 43.6447 3.54896 43.6447 4.82995C43.6447 6.11093 43.1347 7.33944 42.2269 8.24523C41.3192 9.15102 40.088 9.65989 38.8042 9.65989Z" fill="#5D1830"/>
<path d="M6.17963 9.65989C4.89587 9.65989 3.66468 9.15102 2.75692 8.24523C1.84916 7.33944 1.33919 6.11093 1.33919 4.82995C1.33919 3.54896 1.84916 2.32045 2.75692 1.41466C3.66468 0.508868 4.89587 0 6.17963 0V0C7.4634 0 8.69458 0.508868 9.60234 1.41466C10.5101 2.32045 11.0201 3.54896 11.0201 4.82995C11.0201 6.11093 10.5101 7.33944 9.60234 8.24523C8.69458 9.15102 7.4634 9.65989 6.17963 9.65989Z" fill="#5D1830"/>
</g>
<defs>
<clipPath id="clip0">
<rect width="45" height="80" fill="white"/>
</clipPath>
</defs>
</svg>
